<?xml version="1.0" standalone="no"?>
<!DOCTYPE svg PUBLIC "-//W3C//DTD SVG 20010904//EN"
 "http://www.w3.org/TR/2001/REC-SVG-20010904/DTD/svg10.dtd">
<svg version="1.0" xmlns="http://www.w3.org/2000/svg"
 width="400.000000pt" height="400.000000pt" viewBox="0 0 400.000000 400.000000"
 preserveAspectRatio="xMidYMid meet">
<metadata>
Created by potrace 1.14, written by Peter Selinger 2001-2017
</metadata>
<g transform="translate(0.000000,400.000000) scale(0.100000,-0.100000)"
fill="#000000" stroke="none">
<path d="M0 2000 l0 -2000 1519 0 1519 0 -53 163 c-67 207 -102 301 -157 418
-66 139 -110 202 -229 324 -102 105 -150 174 -148 212 0 12 3 9 8 -8 16 -50
36 -76 151 -194 64 -66 130 -140 147 -165 77 -114 158 -309 237 -568 l53 -177
477 -3 476 -2 0 285 0 285 -30 0 c-38 0 -38 15 0 35 26 13 30 21 30 55 0 22
-2 40 -5 40 -2 0 -28 -14 -57 -31 -95 -56 -115 -59 -309 -38 -95 11 -175 21
-178 24 -10 11 16 40 52 59 40 21 41 36 2 28 -14 -2 -25 0 -25 5 0 15 51 40
130 63 41 12 81 27 89 33 8 7 44 19 82 28 57 13 79 14 143 4 l76 -12 0 123 c0
119 -1 123 -22 127 l-23 4 22 8 23 7 0 299 0 299 -377 2 c-208 1 -395 2 -415
1 l-38 -2 0 110 c0 60 -3 109 -7 109 -5 0 -7 -32 -6 -71 1 -63 -1 -72 -18 -76
-18 -5 -18 -7 -3 -17 9 -7 15 -20 13 -30 -4 -15 -21 -17 -167 -19 -89 -1 -158
-1 -152 1 5 2 10 8 10 13 0 6 -5 7 -10 4 -5 -3 -10 3 -10 14 0 16 -6 21 -25
21 -23 0 -24 -2 -15 -21 6 -11 9 -25 7 -32 -3 -7 -11 3 -17 21 -8 21 -15 29
-20 22 -4 -7 -13 1 -24 23 -17 38 -22 61 -6 37 7 -11 10 -6 10 20 0 19 -5 42
-10 50 -8 12 -10 10 -10 -9 0 -19 -3 -21 -14 -12 -12 10 -17 4 -30 -40 -22
-72 -20 -110 9 -203 18 -62 37 -97 76 -146 29 -36 56 -70 60 -76 6 -7 -6 -19
-31 -33 l-39 -22 -42 46 c-23 25 -47 44 -53 42 -16 -5 -53 111 -56 178 0 5 -4
5 -10 -1 -6 -6 -14 -41 -19 -80 -5 -38 -14 -85 -20 -104 -6 -19 -11 -51 -12
-70 0 -29 -2 -31 -9 -15 -7 17 -9 17 -9 3 -1 -10 -5 -18 -9 -18 -5 0 -14 -12
-21 -26 -6 -15 -14 -24 -17 -21 -3 3 2 19 10 36 9 16 16 47 17 68 0 32 2 35
10 18 8 -17 9 -16 5 8 -2 16 3 49 10 74 8 26 14 92 15 147 0 56 6 137 13 181
8 44 12 82 10 84 -5 6 -34 -71 -60 -159 -28 -97 -46 -125 -94 -151 l-34 -19
-18 28 c-37 56 -12 116 61 145 55 23 65 42 16 33 -27 -5 -36 -4 -33 5 2 7 14
14 26 16 21 3 81 59 82 75 0 14 -37 27 -61 21 -24 -6 -24 -6 -6 14 14 16 15
23 6 29 -7 4 -17 0 -25 -10 -17 -23 -34 -12 -34 22 0 21 8 31 39 45 54 25 61
66 26 142 -14 31 -25 59 -25 62 0 4 24 -19 53 -50 48 -52 57 -57 95 -57 23 0
42 -1 42 -2 0 -2 -7 -28 -15 -58 l-14 -55 21 25 21 25 -7 -53 c-8 -61 5 -63
25 -4 7 20 23 57 36 81 12 24 23 50 23 58 0 8 10 24 21 36 28 29 53 86 75 173
17 67 17 73 1 107 -17 34 -76 91 -86 81 -3 -2 11 -20 29 -39 19 -19 29 -35 24
-35 -6 0 -26 16 -45 36 -18 19 -53 46 -77 59 -41 23 -44 23 -61 7 -10 -9 -43
-32 -73 -50 -56 -34 -103 -92 -75 -92 7 0 31 15 53 33 88 74 123 81 108 23 -5
-21 -19 -33 -52 -47 -24 -11 -53 -17 -63 -14 -12 4 -29 -6 -53 -30 -19 -19
-42 -35 -50 -35 -8 0 -21 -3 -30 -6 -10 -4 -16 -1 -16 9 0 20 -48 77 -72 86
-21 7 -32 78 -33 207 0 70 16 97 72 120 27 12 39 11 85 -3 29 -9 62 -25 74
-35 22 -20 44 -24 44 -8 0 22 -114 136 -155 155 l-44 20 41 17 c40 17 40 17
24 -1 -16 -17 -15 -18 6 -17 13 1 31 -4 42 -10 10 -7 24 -10 31 -8 7 3 16 1
20 -5 3 -6 16 -11 27 -11 21 0 21 0 2 22 -12 13 -13 18 -4 13 13 -8 13 -7 0
10 -8 11 -25 31 -38 45 -13 15 -18 26 -11 29 6 2 -2 12 -18 22 -31 21 -25 25
10 8 12 -6 7 2 -11 17 -23 18 -32 33 -29 45 3 10 2 18 -2 17 -3 -1 -19 6 -36
15 -27 16 -28 17 -5 12 35 -9 134 -59 129 -66 -5 -8 21 -39 33 -39 5 0 6 5 2
12 -4 7 -3 8 5 4 6 -4 9 -11 6 -16 -3 -5 10 -21 30 -37 19 -15 35 -34 35 -40
0 -7 4 -13 9 -13 5 0 19 -15 30 -34 14 -22 38 -41 66 -53 25 -10 45 -21 45
-25 0 -12 -7 -10 -50 12 l-40 20 0 -20 c0 -12 -4 -18 -10 -15 -16 10 -11 -11
9 -36 10 -13 30 -48 45 -77 15 -30 29 -52 31 -50 2 1 4 32 6 68 4 111 -69 100
644 100 l625 0 0 600 0 600 -2000 0 -2000 0 0 -2000z m545 1410 c4 -6 13 -5
25 2 22 14 25 12 34 -19 7 -22 5 -23 -43 -23 -48 0 -51 2 -51 25 0 25 23 35
35 15z m1610 -160 c-3 -5 -12 -10 -20 -10 -7 0 -54 -20 -103 -45 -81 -41 -102
-57 -189 -151 -54 -58 -129 -151 -167 -207 -38 -56 -74 -104 -80 -106 -6 -2
-3 5 6 15 9 10 19 31 23 46 4 15 13 29 21 32 8 3 14 12 14 20 0 9 19 37 43 64
62 72 111 133 122 153 15 27 90 103 105 106 3 1 18 6 33 12 16 6 32 11 36 11
4 0 16 8 27 18 15 14 66 34 132 51 2 1 0 -3 -3 -9z m194 -54 c-3 -3 -11 5 -18
17 -13 21 -12 21 5 5 10 -10 16 -20 13 -22z m-757 -489 c-6 -6 -22 -32 -36
-57 -14 -25 -26 -40 -26 -34 0 13 57 104 66 104 4 0 2 -6 -4 -13z m-93 -178
c-12 -24 -28 -59 -35 -78 -13 -33 -14 -34 -9 -6 5 30 57 137 63 130 2 -2 -6
-22 -19 -46z m1091 -144 c0 -26 -25 -45 -59 -45 -30 0 -26 15 12 44 40 32 47
32 47 1z m165 -58 c0 -47 -7 -73 -25 -104 -23 -42 -49 -60 -35 -25 14 37 22
103 18 154 -4 51 -3 52 13 33 16 -20 16 -20 11 4 -5 19 -3 21 6 12 7 -7 12
-39 12 -74z m-335 -28 c0 -18 -2 -19 -15 -9 -15 12 -12 30 6 30 5 0 9 -10 9
-21z m183 -22 c26 -108 16 -157 -31 -157 -58 0 -102 60 -102 137 l0 38 45 -2
c25 0 47 3 50 8 9 14 33 -1 38 -24z m-895 -567 l0 -25 -8 25 c-4 14 -8 36 -8
50 l0 25 8 -25 c4 -14 8 -36 8 -50z m802 -97 c0 -3 -5 -36 -12 -72 -10 -60
-12 -63 -19 -37 -9 32 7 116 22 116 5 0 9 -3 9 -7z m-323 -95 c-7 -77 -34
-168 -63 -213 -12 -19 -24 -25 -40 -22 -13 2 -21 -1 -19 -7 2 -6 6 -24 9 -41
5 -22 4 -26 -4 -15 -8 13 -10 12 -10 -3 0 -10 -4 -15 -10 -12 -5 3 -10 -1 -10
-9 0 -20 -14 -20 -30 -1 -7 8 -15 13 -19 12 -3 -2 -35 26 -71 61 -47 47 -54
56 -24 34 44 -34 57 -33 48 4 -8 33 0 30 25 -8 11 -18 21 -28 21 -23 0 15 -27
54 -68 97 -34 36 -40 68 -7 34 9 -9 21 -16 28 -16 6 0 22 -10 35 -22 14 -13
22 -18 19 -12 -4 7 0 14 8 18 10 3 15 19 15 42 0 36 38 123 67 157 11 11 31
17 61 17 l45 0 -6 -72z m259 6 c-4 -19 -9 -43 -12 -52 -3 -9 4 -1 15 18 11 19
20 28 20 20 0 -8 -15 -40 -35 -70 -20 -31 -32 -44 -28 -30 4 14 11 27 15 28 5
2 7 7 4 12 -5 9 16 110 23 110 2 0 1 -16 -2 -36z m-462 -110 c3 -8 2 -12 -4
-9 -6 3 -10 10 -10 16 0 14 7 11 14 -7z m73 -429 c30 -88 58 -162 63 -165 5
-3 8 -14 8 -25 -3 -48 55 -221 163 -483 17 -41 29 -76 26 -78 -4 -4 -47 95
-155 361 -28 66 -73 199 -102 295 -29 96 -59 189 -67 207 -16 40 -17 56 -1 51
7 -3 36 -76 65 -163z m238 90 c36 -33 45 -48 45 -74 l0 -32 -47 38 c-66 53
-93 86 -82 99 16 20 39 11 84 -31z m1182 39 c-9 -9 -137 -13 -132 -4 3 4 35 8
72 9 36 1 64 -2 60 -5z m110 -1 c-20 -2 -52 -2 -70 0 -17 2 0 4 38 4 39 0 53
-2 32 -4z m-1418 -37 c9 -11 9 -16 -1 -22 -7 -4 -10 -4 -6 1 4 4 3 14 -3 22
-6 7 -9 13 -6 13 2 0 10 -6 16 -14z m1328 8 c-3 -3 -12 -4 -19 -1 -8 3 -5 6 6
6 11 1 17 -2 13 -5z m60 0 c-3 -3 -12 -4 -19 -1 -8 3 -5 6 6 6 11 1 17 -2 13
-5z m80 0 c-3 -3 -12 -4 -19 -1 -8 3 -5 6 6 6 11 1 17 -2 13 -5z m66 -1 c-7
-2 -19 -2 -25 0 -7 3 -2 5 12 5 14 0 19 -2 13 -5z m-1487 -50 c-7 -7 -26 7
-26 19 0 6 6 6 15 -2 9 -7 13 -15 11 -17z m1251 1 c-3 -3 -12 -4 -19 -1 -8 3
-5 6 6 6 11 1 17 -2 13 -5z m-27 -24 c0 -5 -6 -10 -14 -10 -8 0 -18 5 -21 10
-3 6 3 10 14 10 12 0 21 -4 21 -10z m-93 -6 c-3 -3 -12 -4 -19 -1 -8 3 -5 6 6
6 11 1 17 -2 13 -5z m190 -10 c-3 -3 -12 -4 -19 -1 -8 3 -5 6 6 6 11 1 17 -2
13 -5z m-1004 -81 c-7 -3 -13 -12 -13 -21 0 -12 -3 -13 -12 -4 -9 9 -8 15 8
26 10 8 21 12 24 9 3 -3 -1 -8 -7 -10z m-353 -123 c0 -5 -5 -10 -11 -10 -5 0
-7 5 -4 10 3 6 8 10 11 10 2 0 4 -4 4 -10z m64 -15 c-7 -16 -24 -21 -24 -6 0
8 7 13 27 20 1 1 0 -6 -3 -14z m56 -25 c0 -5 -4 -10 -9 -10 -6 0 -13 5 -16 10
-3 6 1 10 9 10 9 0 16 -4 16 -10z m73 -17 c-7 -2 -21 -2 -30 0 -10 3 -4 5 12
5 17 0 24 -2 18 -5z m-722 -58 c7 -13 3 -12 -10 5 -11 14 -21 30 -21 35 0 11
14 -7 31 -40z m789 0 c34 -35 41 -48 32 -57 -9 -9 -12 -9 -12 3 0 15 -44 54
-93 82 l-32 17 31 0 c22 0 41 -11 74 -45z m216 -87 c43 -41 64 -69 64 -85 0
-12 6 -23 13 -23 8 0 24 -11 37 -25 l23 -24 -24 -10 c-30 -12 -173 -41 -205
-41 -25 0 -44 26 -44 60 0 25 29 38 41 19 6 -10 9 -11 9 -1 0 7 -6 15 -14 18
-29 11 -29 124 0 124 10 0 13 7 8 25 -11 43 23 30 92 -37z"/>
<path d="M2444 3046 c11 -9 24 -16 30 -16 12 0 7 5 -24 19 -24 11 -24 11 -6
-3z"/>
<path d="M2487 2962 c6 -15 5 -16 -13 -2 -17 14 -18 14 -6 -2 8 -10 20 -14 29
-11 12 5 14 3 8 -7 -5 -8 -4 -11 3 -6 5 3 12 2 14 -3 5 -15 101 -81 107 -75 4
3 -7 17 -24 32 -16 14 -29 30 -27 35 1 4 -1 6 -5 4 -5 -3 -27 8 -50 23 -31 21
-40 24 -36 12z"/>
<path d="M2610 2832 c6 -13 14 -21 18 -18 3 4 -2 14 -12 24 -18 16 -18 16 -6
-6z"/>
<path d="M2840 2780 c0 -5 5 -10 11 -10 5 0 7 5 4 10 -3 6 -8 10 -11 10 -2 0
-4 -4 -4 -10z"/>
<path d="M2931 2781 c-8 -6 -2 -10 19 -15 53 -10 860 -7 860 4 0 6 -160 9
-426 10 -235 0 -429 2 -433 4 -4 3 -13 1 -20 -3z"/>
<path d="M2878 2773 c6 -2 18 -2 25 0 6 3 1 5 -13 5 -14 0 -19 -2 -12 -5z"/>
<path d="M3820 2770 c0 -5 5 -10 10 -10 6 0 10 5 10 10 0 6 -4 10 -10 10 -5 0
-10 -4 -10 -10z"/>
<path d="M3870 2770 c0 -5 7 -10 15 -10 8 0 15 5 15 10 0 6 -7 10 -15 10 -8 0
-15 -4 -15 -10z"/>
<path d="M3925 2770 c-19 -8 -19 -9 3 -9 12 -1 22 4 22 9 0 6 -1 10 -2 9 -2 0
-12 -4 -23 -9z"/>
<path d="M3970 2770 c0 -6 7 -10 15 -10 8 0 15 2 15 4 0 2 -7 6 -15 10 -8 3
-15 1 -15 -4z"/>
<path d="M2589 2617 c18 -23 71 -60 77 -55 2 3 -17 20 -44 38 -26 19 -41 26
-33 17z"/>
<path d="M2716 2611 c-4 -7 -5 -15 -2 -18 9 -9 19 4 14 18 -4 11 -6 11 -12 0z"/>
<path d="M3100 2003 c14 -3 29 -9 35 -14 14 -14 35 -11 35 6 0 11 -11 15 -47
14 -28 -1 -37 -4 -23 -6z"/>
<path d="M2680 1961 c-11 -23 -17 -41 -12 -41 11 0 47 69 39 76 -3 3 -15 -12
-27 -35z"/>
<path d="M3008 1983 c6 -2 18 -2 25 0 6 3 1 5 -13 5 -14 0 -19 -2 -12 -5z"/>
<path d="M3078 1983 c12 -2 30 -2 40 0 9 3 -1 5 -23 4 -22 0 -30 -2 -17 -4z"/>
<path d="M2787 1928 c-18 -31 -18 -32 2 -59 25 -33 26 -39 6 -39 -8 0 -17 11
-21 25 -8 31 -12 28 -24 -15 -5 -18 -7 -30 -3 -26 3 3 12 1 19 -4 14 -12 36
-10 46 5 10 13 10 145 1 145 -5 0 -16 -14 -26 -32z"/>
<path d="M2610 1884 c-33 -89 -65 -262 -44 -242 10 10 35 131 30 145 -3 7 6
43 20 79 14 37 23 69 20 71 -2 2 -14 -21 -26 -53z"/>
<path d="M3271 1833 l2 -53 129 0 128 0 0 55 c0 42 -3 55 -15 55 -8 0 -15 -6
-15 -12 0 -10 -2 -10 -9 0 -6 10 -36 12 -115 11 l-106 -3 1 -53z"/>
<path d="M3128 1813 c7 -3 16 -2 19 1 4 3 -2 6 -13 5 -11 0 -14 -3 -6 -6z"/>
</g>
</svg>
